<?xml version="1.0" encoding="UTF-8" standalone="no"?>
<svg
   xmlns:dc="http://purl.org/dc/elements/1.1/"
   xmlns:cc="http://creativecommons.org/ns#"
   xmlns:rdf="http://www.w3.org/1999/02/22-rdf-syntax-ns#"
   xmlns:svg="http://www.w3.org/2000/svg"
   xmlns="http://www.w3.org/2000/svg"
   xmlns:xlink="http://www.w3.org/1999/xlink"
   xmlns:sodipodi="http://sodipodi.sourceforge.net/DTD/sodipodi-0.dtd"
   xmlns:inkscape="http://www.inkscape.org/namespaces/inkscape"
   version="1.0"
   width="512"
   height="512"
   viewBox="0 0 51.2 51.2"
   id="svg0"
   sodipodi:version="0.32"
   inkscape:version="0.92.5 (2060ec1f9f, 2020-04-08)"
   sodipodi:docname="Ambox_globe_Americas.svg"
   inkscape:output_extension="org.inkscape.output.svg.inkscape">
  <metadata
     id="metadata19">
    <rdf:RDF>
      <cc:Work
         rdf:about="">
        <dc:format>image/svg+xml</dc:format>
        <dc:type
           rdf:resource="http://purl.org/dc/dcmitype/StillImage" />
        <dc:title></dc:title>
      </cc:Work>
    </rdf:RDF>
  </metadata>
  <sodipodi:namedview
     inkscape:window-height="874"
     inkscape:window-width="1864"
     inkscape:pageshadow="2"
     inkscape:pageopacity="0.0"
     guidetolerance="10.0"
     gridtolerance="10.0"
     objecttolerance="10.0"
     borderopacity="1.0"
     bordercolor="#666666"
     pagecolor="#ffffff"
     id="base"
     inkscape:zoom="1.4142136"
     inkscape:cx="228.46107"
     inkscape:cy="325.42603"
     inkscape:window-x="25"
     inkscape:window-y="24"
     inkscape:current-layer="svg0"
     showguides="true"
     inkscape:guide-bbox="true"
     showgrid="false"
     inkscape:window-maximized="0"
     inkscape:lockguides="false">
    <inkscape:grid
       type="xygrid"
       id="grid912" />
  </sodipodi:namedview>
  <defs
     id="defs4">
    <inkscape:perspective
       sodipodi:type="inkscape:persp3d"
       inkscape:vp_x="0 : 310 : 1"
       inkscape:vp_y="0 : 1000 : 0"
       inkscape:vp_z="620 : 310 : 1"
       inkscape:persp3d-origin="310 : 206.66667 : 1"
       id="perspective85" />
    <linearGradient
       spreadMethod="pad"
       xlink:href="#oceanGradient"
       gradientUnits="userSpaceOnUse"
       id="circleBorderPaint"
       y2="16.248501"
       x2="9.5471001"
       y1="41.179295"
       x1="54.509937">
      <stop
         offset="0"
         style="stop-color:#3e79ca;stop-opacity:1;"
         id="stop21221" />
      <stop
         offset="1"
         style="stop-color:#36a8ff;stop-opacity:1;"
         id="stop21223" />
    </linearGradient>
    <radialGradient
       id="radialGradient20242">
      <stop
         offset="0"
         style="stop-color:#000000;stop-opacity:0.31182796;"
         id="stop20244" />
      <stop
         offset="0.88"
         style="stop-color:#000000;stop-opacity:0.60573477;"
         id="stop20246" />
      <stop
         offset="1"
         style="stop-color:#000000;stop-opacity:0;"
         id="stop20248" />
    </radialGradient>
    <linearGradient
       id="Land-color-linear">
      <stop
         id="stop17269"
         offset="0"
         style="stop-color:#49c007;stop-opacity:1;" />
      <stop
         id="stop17271"
         offset="1"
         style="stop-color:#209305;stop-opacity:1;" />
    </linearGradient>
    <radialGradient
       inkscape:collect="always"
       xlink:href="#Land-color-linear"
       id="radialGradientLadmassesFillColor"
       cx="56.015846"
       cy="49.614792"
       fx="56.015846"
       fy="49.614792"
       r="55.502899"
       gradientTransform="matrix(0.45974712,-1.571229,1.2859375,0.3763289,-40.804008,114.9048)"
       gradientUnits="userSpaceOnUse" />
    <linearGradient
       x1="55.454102"
       y1="42.752899"
       x2="9.5471001"
       y2="16.248501"
       id="linearGradient4174"
       xlink:href="#edgeGradient"
       gradientUnits="userSpaceOnUse" />
    <linearGradient
       x1="42.986301"
       y1="7.0127001"
       x2="22.0144"
       y2="51.987099"
       id="linearGradient4172"
       xlink:href="#oceanGradient"
       gradientUnits="userSpaceOnUse" />
    <radialGradient
       cx="32.5"
       cy="29.5"
       r="26.5"
       fx="32.5"
       fy="29.5"
       id="radialGradient4170"
       xlink:href="#shadowGradient"
       gradientUnits="userSpaceOnUse" />
    <radialGradient
       id="shadowGradient">
      <stop
         id="stop17"
         style="stop-color:#c0c0c0;stop-opacity:1"
         offset="0" />
      <stop
         id="stop19"
         style="stop-color:#c0c0c0;stop-opacity:1"
         offset="0.88" />
      <stop
         id="stop21"
         style="stop-color:#c0c0c0;stop-opacity:0"
         offset="1" />
    </radialGradient>
    <linearGradient
       x1="52.778114"
       y1="-13.238551"
       x2="22.0144"
       y2="51.987099"
       id="oceanGradient"
       gradientUnits="userSpaceOnUse">
      <stop
         id="stop7"
         style="stop-color:#d8ebff;stop-opacity:1;"
         offset="0" />
      <stop
         id="stop9"
         style="stop-color:#4fa9ff;stop-opacity:1;"
         offset="1" />
    </linearGradient>
    <linearGradient
       x1="54.509937"
       y1="41.179295"
       x2="9.5471001"
       y2="16.248501"
       id="edgeGradient"
       gradientUnits="userSpaceOnUse"
       xlink:href="#oceanGradient"
       spreadMethod="pad">
      <stop
         id="stop12"
         style="stop-color:#2b79e0;stop-opacity:1;"
         offset="0" />
      <stop
         id="stop14"
         style="stop-color:#008df7;stop-opacity:1;"
         offset="1" />
    </linearGradient>
    <defs
       id="defs3242">
      <circle
         r="51.375"
         cy="61.875"
         cx="61.625"
         id="SVGID_5_" />
    </defs>
    <clipPath
       id="SVGID_6_">
      <use
         id="use3246"
         overflow="visible"
         xlink:href="#SVGID_5_"
         style="overflow:visible"
         x="0"
         y="0"
         width="62"
         height="62" />
    </clipPath>
    <linearGradient
       gradientTransform="matrix(1,0,0,-1,0,-538)"
       y2="-652.24951"
       x2="61.6255"
       y1="-551.25"
       x1="61.6255"
       gradientUnits="userSpaceOnUse"
       id="SVGID_7_">
      <stop
         id="stop3249"
         style="stop-color:#FFFFFF"
         offset="0" />
      <stop
         id="stop3251"
         style="stop-color:#E1F1FF"
         offset="0.1478" />
      <stop
         id="stop3253"
         style="stop-color:#D4EBFF"
         offset="0.2363" />
      <stop
         id="stop3255"
         style="stop-color:#E3F2FF"
         offset="0.3505" />
      <stop
         id="stop3257"
         style="stop-color:#F3F9FF"
         offset="0.5264" />
      <stop
         id="stop3259"
         style="stop-color:#FCFEFF"
         offset="0.7262" />
      <stop
         id="stop3261"
         style="stop-color:#FFFFFF"
         offset="1" />
    </linearGradient>
    <defs
       id="defs3271">
      <circle
         r="51.375"
         cy="61.875"
         cx="61.625"
         id="SVGID_8_" />
    </defs>
    <clipPath
       id="SVGID_9_">
      <use
         id="use3275"
         overflow="visible"
         xlink:href="#SVGID_8_"
         style="overflow:visible"
         x="0"
         y="0"
         width="62"
         height="62" />
    </clipPath>
    <linearGradient
       gradientTransform="translate(0,-665)"
       y2="728.875"
       x2="107.833"
       y1="728.875"
       x1="10.25"
       gradientUnits="userSpaceOnUse"
       id="SVGID_10_">
      <stop
         id="stop3278"
         style="stop-color:#FFFFFF"
         offset="0" />
      <stop
         id="stop3280"
         style="stop-color:#EDF7FF"
         offset="0.1435" />
      <stop
         id="stop3282"
         style="stop-color:#E0F2FF"
         offset="0.2802" />
      <stop
         id="stop3284"
         style="stop-color:#E3F3FF"
         offset="0.3063" />
      <stop
         id="stop3286"
         style="stop-color:#F3FAFF"
         offset="0.4942" />
      <stop
         id="stop3288"
         style="stop-color:#FCFEFF"
         offset="0.7076" />
      <stop
         id="stop3290"
         style="stop-color:#FFFFFF"
         offset="1" />
    </linearGradient>
    <radialGradient
       id="SVGID_3_"
       cx="61.833"
       cy="-600.16602"
       r="53.000999"
       gradientTransform="matrix(1,0,0,-1,0,-538)"
       gradientUnits="userSpaceOnUse">
      <stop
         offset="0.95050001"
         style="stop-color:#3c6bf3;stop-opacity:1;"
         id="stop3227" />
      <stop
         offset="1"
         style="stop-color:#3c8af2;stop-opacity:1;"
         id="stop3229" />
    </radialGradient>
    <linearGradient
       inkscape:collect="always"
       xlink:href="#edgeGradient"
       id="linearGradient17291"
       gradientUnits="userSpaceOnUse"
       x1="55.454102"
       y1="42.752899"
       x2="9.5471001"
       y2="16.248501" />
    <linearGradient
       inkscape:collect="always"
       xlink:href="#SVGID_7_"
       id="linearGradient2440"
       gradientUnits="userSpaceOnUse"
       gradientTransform="matrix(1,0,0,-1,0,-538)"
       x1="61.6255"
       y1="-551.25"
       x2="61.6255"
       y2="-652.24951" />
    <linearGradient
       id="SVGID_13_"
       gradientUnits="userSpaceOnUse"
       x1="62.4063"
       y1="-595"
       x2="62.4063"
       y2="-603.18707"
       gradientTransform="matrix(1,0,0,-1,0,-538)">
      <stop
         offset="0"
         style="stop-color:#8BA4D6"
         id="stop3535" />
      <stop
         offset="1"
         style="stop-color:#1B3EA6"
         id="stop3537" />
    </linearGradient>
    <linearGradient
       id="SVGID_11_"
       gradientUnits="userSpaceOnUse"
       x1="-160.0361"
       y1="-726.61621"
       x2="-160.0361"
       y2="-729.13458"
       gradientTransform="matrix(0.4699332,0.04741368,0.08074037,-0.2759618,171.41242,-150.97698)">
      <stop
         offset="0"
         style="stop-color:#524AC9"
         id="stop3506" />
      <stop
         offset="0.0957"
         style="stop-color:#5855BC"
         id="stop3508" />
      <stop
         offset="0.2352"
         style="stop-color:#5D60AF"
         id="stop3510" />
      <stop
         offset="0.3681"
         style="stop-color:#5F64AB"
         id="stop3512" />
      <stop
         offset="0.7253"
         style="stop-color:#190C7F"
         id="stop3514" />
    </linearGradient>
    <linearGradient
       id="SVGID_12_"
       gradientUnits="userSpaceOnUse"
       x1="-915.77289"
       y1="-785.93951"
       x2="-915.77289"
       y2="-789.15601"
       gradientTransform="matrix(0.1444826,-0.2594453,-0.2594453,-0.1444826,-26.436133,-312.62999)">
      <stop
         offset="0"
         style="stop-color:#524AC9"
         id="stop3519" />
      <stop
         offset="0.0957"
         style="stop-color:#5855BC"
         id="stop3521" />
      <stop
         offset="0.2352"
         style="stop-color:#5D60AF"
         id="stop3523" />
      <stop
         offset="0.3681"
         style="stop-color:#5F64AB"
         id="stop3525" />
      <stop
         offset="0.7253"
         style="stop-color:#190C7F"
         id="stop3527" />
    </linearGradient>
    <radialGradient
       inkscape:collect="always"
       xlink:href="#radialGradient20242"
       id="radialGradient2273"
       gradientUnits="userSpaceOnUse"
       gradientTransform="matrix(0.910132,-0.00531938,0.00485002,0.85489957,-2.1971929,0.7835824)"
       cx="31.385874"
       cy="32.356133"
       fx="31.385874"
       fy="32.356133"
       r="26.5" />
    <radialGradient
       inkscape:collect="always"
       xlink:href="#oceanGradient"
       id="radialGradient2275"
       gradientUnits="userSpaceOnUse"
       gradientTransform="matrix(0.3279324,1.0172915,-0.85002946,0.26588271,32.969122,-4.8832428)"
       cx="16.352713"
       cy="26.318125"
       fx="16.352713"
       fy="26.318125"
       r="26.799999" />
    <radialGradient
       inkscape:collect="always"
       xlink:href="#radialGradientLadmassesFillColor"
       id="radialGradient2279"
       gradientUnits="userSpaceOnUse"
       gradientTransform="matrix(0.382526,-1.3439084,1.0992837,0.3207092,-11.729592,45.423975)"
       cx="24.112741"
       cy="21.770895"
       fx="24.112741"
       fy="21.770895"
       r="25.796875" />
    <linearGradient
       inkscape:collect="always"
       xlink:href="#circleBorderPaint"
       id="linearGradient2281"
       gradientUnits="userSpaceOnUse"
       x1="55.454102"
       y1="42.752899"
       x2="9.5471001"
       y2="16.248501"
       gradientTransform="matrix(0.89487825,0,0,0.89487833,-2.141225,-2.1412311)" />
    <clipPath
       id="SVGID_2_">
      <use
         style="overflow:visible"
         xlink:href="#SVGID_1_"
         id="use1199"
         x="0"
         y="0"
         width="100%"
         height="100%" />
    </clipPath>
    <path
       id="SVGID_1_"
       d="m 127.65,64 c 0,35.15 -28.5,63.65 -63.66,63.65 C 28.85,127.65 0.35,99.15 0.35,64 0.35,28.84 28.85,0.35 63.99,0.35 c 35.16,0 63.66,28.49 63.66,63.65 z"
       inkscape:connector-curvature="0" />
    <linearGradient
       id="linearGradient17267">
      <stop
         id="stop81"
         offset="0"
         style="stop-color:#49c007;stop-opacity:1;" />
      <stop
         id="stop83"
         offset="1"
         style="stop-color:#209305;stop-opacity:1;" />
    </linearGradient>
    <radialGradient
       inkscape:collect="always"
       xlink:href="#linearGradient17267"
       id="radialGradient86"
       gradientUnits="userSpaceOnUse"
       gradientTransform="matrix(0.4165222,-1.4633453,1.1969801,0.3492115,-11.5892,50.240972)"
       cx="24.112741"
       cy="21.770895"
       fx="24.112741"
       fy="21.770895"
       r="25.796875" />
    <radialGradient
       inkscape:collect="always"
       xlink:href="#Land-color-linear"
       id="radialGradient914"
       cx="67.993698"
       cy="60.526325"
       fx="67.993698"
       fy="60.526325"
       r="59.6563"
       gradientTransform="matrix(1,0,0,1.008717,0,-0.5276103)"
       gradientUnits="userSpaceOnUse" />
    <radialGradient
       inkscape:collect="always"
       xlink:href="#Land-color-linear"
       id="radialGradient906"
       gradientUnits="userSpaceOnUse"
       gradientTransform="matrix(1,0,0,1.008717,0,-0.5276103)"
       cx="67.993698"
       cy="60.526325"
       fx="67.993698"
       fy="60.526325"
       r="59.6563" />
    <radialGradient
       inkscape:collect="always"
       xlink:href="#Land-color-linear"
       id="radialGradient908"
       gradientUnits="userSpaceOnUse"
       gradientTransform="matrix(1,0,0,1.008717,0,-0.5276103)"
       cx="67.993698"
       cy="60.526325"
       fx="67.993698"
       fy="60.526325"
       r="59.6563" />
    <radialGradient
       inkscape:collect="always"
       xlink:href="#Land-color-linear"
       id="radialGradient910"
       gradientUnits="userSpaceOnUse"
       gradientTransform="matrix(1,0,0,1.008717,0,-0.5276103)"
       cx="67.993698"
       cy="60.526325"
       fx="67.993698"
       fy="60.526325"
       r="59.6563" />
  </defs>
  <ellipse
     id="circle4163"
     style="display:inline;fill:url(#radialGradient2273);fill-opacity:1;stroke-width:1.02517641"
     cy="26.120001"
     cx="27.725"
     inkscape:label="shadow"
     sodipodi:insensitive="true"
     rx="27.035"
     ry="27.299999" />
  <circle
     id="circle4165"
     style="display:inline;fill:url(#radialGradient2275);fill-opacity:1;stroke:none;stroke-width:0;stroke-miterlimit:4;stroke-dasharray:none"
     cy="25.6"
     cx="25.6"
     sodipodi:insensitive="true"
     inkscape:label="blueOcean"
     r="22.6" />
  <circle
     style="display:inline;opacity:0.29807691;fill:#ffffff;fill-opacity:1;stroke:none;stroke-width:4.53960705;stroke-linecap:butt;stroke-linejoin:miter;stroke-miterlimit:4;stroke-dasharray:none;stroke-opacity:1"
     id="path3228"
     cx="25.6"
     cy="25.6"
     inkscape:label="gradientOverOcean"
     r="22.6" />
  <g
     transform="matrix(0.35178402,0,0,0.35023074,3.0947694,3.2987194)"
     id="g1210"
     inkscape:label="Landmasses"
     sodipodi:insensitive="true"
     style="display:inline;fill:url(#linearGradient910);fill-opacity:1">
    <defs
       id="defs1195">
      <path
         id="path1261"
         d="m 127.65,64 c 0,35.15 -28.5,63.65 -63.66,63.65 C 28.85,127.65 0.35,99.15 0.35,64 0.35,28.84 28.85,0.35 63.99,0.35 c 35.16,0 63.66,28.49 63.66,63.65 z"
         inkscape:connector-curvature="0"
         style="fill:url(#linearGradient910);fill-opacity:1" />
    </defs>
    <clipPath
       id="clipPath1235"
       style="fill:url(#linearGradient910);fill-opacity:1">
      <use
         style="overflow:visible;fill:url(#linearGradient910);fill-opacity:1"
         xlink:href="#SVGID_1_"
         id="use1233"
         x="0"
         y="0"
         width="100%"
         height="100%" />
    </clipPath>
    <g
       clip-path="url(#SVGID_2_)"
       id="g1208"
       inkscape:label="TheLandmasses"
       style="display:inline;fill:url(#radialGradient914);fill-opacity:1;stroke:#1a7a0b;stroke-width:1.1572727;stroke-miterlimit:4;stroke-dasharray:none;stroke-opacity:1">
      <path
         d="m 108.99,82.74 c -1.05,-0.79 -3.19,-1.75 -4.38,-1.93 -2.03,-0.31 -3.13,0.4 -4.08,-1.75 -0.79,-1.79 -1.38,-2.91 -2.79,-4.39 -2.72,-2.84 -5.18,-4.1 -8.87,-5.52 h -6.28 c -2.64,-0.72 -5.29,-1.66 -7.64,0.44 -0.25,0.22 -0.46,0.5 -0.69,0.75 -0.26,0.28 -1.43,0.38 -1.81,0.48 -0.53,0.13 -1.09,0.29 -1.65,0.3 -0.86,0.02 -2.04,-0.21 -2.63,-0.89 -0.34,-0.39 -0.54,-1.16 -0.59,-1.67 -0.06,-0.68 0.23,-1.27 0.24,-1.92 0.02,-0.58 0.05,-1.25 -0.11,-1.8 -0.33,-1.15 -1.63,-1.48 -2.64,-1.7 -0.6,-0.13 -1.19,-0.22 -1.8,-0.42 -1.53,-0.52 -0.74,-2.61 -0.09,-3.54 0.66,-0.95 1.61,-1.61 0.02,-2.48 -1.28,-0.69 -2.85,-0.58 -3.98,0.26 -1.08,0.82 -1.79,2.41 -3.1,2.82 -1.5,0.48 -3.13,-0.62 -4.55,-0.82 0.14,-1.89 -0.81,-5.37 -0.76,-6.23 0.14,-2.27 1.81,-4.73 4,-5.33 2.19,-0.6 4.6,-1.06 6.87,-0.82 3.51,0.37 3.36,2.25 5.19,4.7 0.6,0.8 1.75,1.74 2.79,1.19 2.21,-1.16 1.53,-4.14 1.6,-6.15 0.11,-3.13 2.12,-5.02 4.04,-7.33 0.71,-0.85 1.43,-1.69 2.13,-2.55 0.63,-0.78 1.37,-1.51 2.43,-1.71 0.74,-0.13 1.65,0.01 2.4,0.01 1.22,0 3.55,0.41 4.26,-0.84 0.66,-1.18 -0.31,-1.99 -1.29,-2.37 -0.4,-0.16 -1.08,-0.24 -1.2,-0.74 -0.41,-1.75 1.47,-1.81 2.64,-2 1.06,-0.17 2.43,-0.52 3.24,0.46 0.36,0.44 0.18,0.97 0.59,1.42 0.75,0.81 2.68,0.35 3.49,-0.12 0.94,-0.55 1.2,-2.09 1.2,-3.09 0,-0.52 -0.08,-1.06 -0.38,-1.49 -0.8,-1.14 -3.15,-1.66 -4.33,-2.33 -1.72,-0.98 -3.32,-2.14 -4.89,-3.33 -1.84,-1.39 -3.85,-2.51 -5.88,-3.58 -1.75,-0.91 -3.92,-2.42 -5.97,-2.06 -0.8,0.13 -1.24,0.71 -1.41,1.48 -0.11,0.58 -0.38,1.17 -0.38,1.77 0.01,0.73 0.35,1.4 0.56,2.08 0.26,0.85 0.47,1.72 -0.2,2.43 -0.64,0.67 -2.06,0.65 -2.8,0.1 -0.9,-0.68 -1.27,-1.77 -2.26,-2.29 -1.1,-0.58 -1.92,-0.74 -3.15,-0.59 -1.15,0.14 -2.53,0.28 -3.68,-0.01 -1.1,-0.27 -2.17,-1.6 -2.19,-2.73 -0.02,-0.81 0.16,-1.94 0.93,-2.39 0.91,-0.52 2.42,-0.39 3.44,-0.47 0.21,-0.01 0.41,-0.03 0.6,-0.05 0.03,-0.01 0.06,-0.01 0.09,-0.01 0.03,-0.01 0.07,-0.01 0.1,-0.01 0.29,-0.04 0.56,-0.07 0.75,-0.12 -0.01,-0.02 -0.04,-0.04 -0.05,-0.06 0.16,0.3 1.07,-1.02 1.1,-1.17 0.16,-0.66 -0.33,-1.43 -0.09,-2.05 0.18,-0.46 0.83,-0.75 1.26,-0.89 0.67,-0.21 1.36,-0.09 2.04,-0.02 0.55,0.06 1.14,0.06 1.68,0.17 1.25,0.26 1.29,1.24 2.07,2 1.12,1.05 1.8,0.59 3.26,0.79 1.57,0.21 5.69,2.91 7.09,0.8 C 84.06,11.08 79.86,9.35 78.56,8.92 76.51,8.24 74.47,6.85 73.13,5.15 72.47,4.31 71.95,3.29 71.97,2.19 c 0.03,-0.89 0,-2.26 0.83,-2.83 0.2,-0.13 0.42,-0.21 0.65,-0.22 0.41,-0.04 0.86,-0.06 1.2,0.14 0.5,0.31 0.91,0.91 1.17,1.42 0.55,1.1 0.36,2.15 1.15,3.25 0.79,1.07 1.82,1.94 2.78,2.84 2.49,2.32 5.24,4.38 8.43,5.6 1.72,0.66 3.53,1.17 5.16,2.07 1.85,1.04 2.53,2.38 3.76,3.97 3.45,4.43 13.57,2.99 11.2,-4 C 106.52,9.19 103.04,4.7 98.4,1.86 96.17,0.5 94.17,-1.39 91.92,-2.65 89.1,-4.22 85.72,-4.7 82.58,-5.22 78.87,-5.83 75.23,-6.11 71.48,-6.28 68.75,-6.4 65.86,-6.84 63.59,-5 c -1.21,0.97 -4.77,4.34 -4.84,5.74 -0.07,1.34 1.69,2.06 1.97,3.29 0.11,0.53 0.15,1 -0.26,1.4 -0.45,0.44 -1.07,0.58 -1.17,1.28 -0.08,0.61 0.15,1.02 0.39,1.54 0.19,0.4 0.6,1.17 0.25,1.62 C 59,11.04 57.75,8.93 57.67,8.13 57.55,6.83 57.96,5.7 56.64,4.88 55.75,4.33 53.33,4.09 52.96,5.39 52.78,6.01 53.48,6.61 53.4,7.33 53.23,8.79 52.26,8.42 51.15,8.61 49.21,8.94 48.81,10.39 46.73,9.43 46.53,8.39 47.13,6.71 46.12,6.01 45.31,5.46 43.49,5.86 42.58,5.5 40.3,4.58 38.29,4.29 35.86,5.01 33.29,5.78 30.72,7.3 28.24,8.53 25.05,10.11 20.06,8.08 17.46,10.41 l -0.05,0.45 c -2.14,-0.02 -3.03,0.32 -4.53,2.31 -1.08,1.43 -1.63,2.81 -2.28,4.39 -0.49,1.2 -1.51,2.3 -1.7,3.64 -0.12,0.94 -0.05,2.13 0.09,3.06 0.07,0.52 4.7,-0.89 5.29,-0.82 2.15,0.28 3.81,2.36 5.53,3.47 1.47,0.93 3.25,1.89 3.51,3.68 0.32,2.16 -0.08,4.57 -0.02,6.76 0.12,4.35 4.62,7.66 7.3,10.67 1.19,1.34 1.29,3.01 2.46,4.27 0.65,0.71 2.62,4.24 4.06,2.93 1.15,-1.04 -1.86,-4.22 -1.62,-5.68 0.13,-0.89 2.15,0.89 2.27,1.02 0.84,1 1.28,2.44 1.72,3.65 0.95,2.61 1.79,3.77 3.98,4.79 -0.13,1.25 1.15,2.09 2.29,2.74 1.25,0.71 2.61,0.73 3.94,1.32 1.26,0.57 2.64,0.56 3.81,1.13 1.74,0.84 0.57,1.67 1.55,2.92 1.09,1.4 3.16,0.54 4.63,0.77 3.15,0.49 2.62,3.5 4.58,5.31 1.07,1.01 2.9,0.9 4.25,1.05 0.53,0.06 1.22,0.07 1.64,0.45 1.05,0.93 -0.18,2.21 -0.58,3.12 -0.55,1.22 -0.93,2.53 -1.17,3.85 -0.67,3.68 -0.53,7.79 2.15,10.64 2.92,3.11 6.49,4.52 7.6,8.96 0.95,3.71 0.07,7.34 -0.61,11 -0.42,2.2 -3.43,6.02 -0.44,7.64 2.6,1.41 7.02,-2.47 8.72,-3.95 4.01,-3.5 9.31,-5.63 11.95,-10.54 1.25,-2.33 2.36,-4.79 4.55,-6.4 1.15,-0.85 2.48,-1.41 3.71,-2.12 2.61,-1.49 4.17,-4.66 5.34,-7.29 1.38,-3.19 0.11,-4.99 -2.39,-6.86 z M 61.9,26.46 c 0.71,-0.17 1.67,-0.13 1.97,-0.06 1.15,0.28 2,1.18 2.88,1.9 0.64,0.51 1.18,1.05 1.75,1.62 0.37,0.37 0.72,0.7 0.64,1.31 -0.06,0.53 -0.36,0.79 -0.84,0.84 -0.87,0.09 -1.26,-0.48 -2.04,-0.61 -1.85,-0.31 -2.62,2.81 -4.47,1.96 -0.47,-0.22 -0.33,-0.61 -0.33,-1.11 -0.01,-0.38 0,-0.72 0.14,-1.05 0.18,-0.42 0.47,-0.77 0.82,-1.08 0.22,-0.19 0.58,-0.34 0.75,-0.59 0.41,-0.64 -0.17,-1.32 -0.75,-1.56 -0.36,-0.15 -0.89,-0.16 -1.12,-0.48 -0.43,-0.61 -0.01,-0.93 0.6,-1.09 z"
         style="display:inline;fill:url(#radialGradient906);fill-opacity:1;stroke-width:1.1572727;stroke-miterlimit:4;stroke-dasharray:none"
         id="path1202"
         inkscape:connector-curvature="0"
         inkscape:label="Americas" />
      <path
         d="m 136.02,61.08 c -0.02,-3 0.12,-7.11 -2.38,-9.28 -2.31,-2.01 -5.16,-0.79 -7.07,1.13 -3.7,3.73 -5.2,10.77 -2.12,15.3 1.14,1.68 2.59,3.08 4.49,3.52 1.86,0.43 5.41,0.66 6.32,-1.24 0.52,-1.09 0.32,-2.37 0.32,-3.56 -0.01,-2.03 0.46,-3.86 0.44,-5.87 z"
         style="display:inline;fill:url(#radialGradient908);fill-opacity:1;stroke-width:1.1572727;stroke-miterlimit:4;stroke-dasharray:none"
         id="path1204"
         inkscape:connector-curvature="0"
         inkscape:label="AfricaTip" />
      <path
         d="m 78.15,57.27 c -0.92,-0.46 -1.27,-1.24 -1.88,-1.86 -0.3,-0.3 -0.66,-0.56 -1.18,-0.72 -0.98,-0.28 -2.22,-0.17 -3.23,-0.11 -1.49,0.09 -5.29,0.34 -5.48,2.43 -0.25,2.67 3.42,2.37 5.24,2.34 1.25,-0.02 2.46,-0.48 3.71,-0.17 1.83,0.45 1.42,2.08 2.84,2.7 0.51,0.22 2.09,0.52 2.58,0.56 1.82,0.16 6.19,-0.89 5.03,-3.49 -1.05,-2.39 -5.76,-0.75 -7.63,-1.68 z"
         style="display:inline;fill:url(#radialGradient910);fill-opacity:1;stroke-width:1.1572727;stroke-miterlimit:4;stroke-dasharray:none"
         id="path1206"
         inkscape:connector-curvature="0"
         inkscape:label="Caribbeans" />
    </g>
  </g>
  <circle
     id="circle13325"
     style="display:inline;fill:none;stroke:url(#linearGradient2281);stroke-width:1.82428169;stroke-miterlimit:4;stroke-dasharray:none"
     cy="25.599998"
     cx="25.6"
     inkscape:label="border"
     sodipodi:insensitive="true"
     r="23.08786" />
</svg>
