<svg xmlns="http://www.w3.org/2000/svg" xmlns:xlink="http://www.w3.org/1999/xlink" viewBox="0 0 742.75 245.87"><defs><style>.cls-1,.cls-8{fill:none;}.cls-2{fill:url(#radial-gradient);}.cls-3{fill:#fff;isolation:isolate;opacity:0.3;}.cls-4{clip-path:url(#clip-path);}.cls-5{stroke:#1a7a0b;stroke-width:1.16px;fill:url(#radial-gradient-2);}.cls-6{font-size:150px;font-family:SegoeUISymbol, Segoe UI Symbol;}.cls-7{fill:url(#radial-gradient-5);}.cls-8{stroke:#000;stroke-miterlimit:10;stroke-width:3px;}</style><radialGradient id="radial-gradient" cx="15.49" cy="209.56" r="5.58" gradientTransform="matrix(3.28, 10.17, 8.5, -2.66, -1417.37, 459.91)" gradientUnits="userSpaceOnUse"><stop offset="0" stop-color="#d8ebff"/><stop offset="1" stop-color="#4fa9ff"/></radialGradient><clipPath id="clip-path" transform="translate(-36.22 -16.51)"><path class="cls-1" d="M517.7,91.28a46.61,46.61,0,1,1-46.62-46.4A46.51,46.51,0,0,1,517.7,91.28Z"/></clipPath><radialGradient id="radial-gradient-2" cx="126.66" cy="184.98" r="12.42" gradientTransform="matrix(3.52, 0, 0, -3.53, 28.43, 742.24)" gradientUnits="userSpaceOnUse"><stop offset="0" stop-color="#49c007"/><stop offset="1" stop-color="#209305"/></radialGradient><radialGradient id="radial-gradient-5" cx="127.94" cy="124.23" fx="135.1344748611897" fy="112.72610460809472" r="31.83" gradientUnits="userSpaceOnUse"><stop offset="0" stop-color="lime"/><stop offset="0.87" stop-color="#3cbf48"/></radialGradient></defs><g id="Globe"><circle id="circle4165" class="cls-2" cx="434.85" cy="74.54" r="47.05"/><circle id="path3228" class="cls-3" cx="434.85" cy="74.54" r="47.05"/><g id="g1210"><g class="cls-4"><g id="g1208"><path id="path1202" class="cls-5" d="M504,105a9,9,0,0,0-3.2-1.41c-1.49-.23-2.29.29-3-1.28a9.74,9.74,0,0,0-2-3.2,15.78,15.78,0,0,0-6.5-4h-4.6c-1.93-.53-3.87-1.21-5.59.32a6.51,6.51,0,0,0-.51.54c-.19.21-1.05.28-1.32.35a5,5,0,0,1-1.21.22,2.59,2.59,0,0,1-1.93-.65,2.45,2.45,0,0,1-.43-1.21,12.44,12.44,0,0,1,.18-1.4,4.74,4.74,0,0,0-.08-1.31c-.25-.84-1.2-1.08-1.94-1.24a13.22,13.22,0,0,1-1.32-.31c-1.12-.38-.54-1.9-.06-2.58s1.18-1.18,0-1.81a2.75,2.75,0,0,0-2.91.19c-.79.6-1.31,1.76-2.27,2.06s-2.29-.46-3.33-.6c.1-1.38-.6-3.92-.56-4.54a4.44,4.44,0,0,1,2.93-3.89,14.07,14.07,0,0,1,5-.6c2.57.27,2.46,1.64,3.8,3.43.44.58,1.28,1.27,2,.87,1.62-.85,1.12-3,1.17-4.49.09-2.28,1.56-3.66,3-5.34.52-.62,1.05-1.23,1.56-1.86a3.12,3.12,0,0,1,1.78-1.25,11.5,11.5,0,0,1,1.76,0c.89,0,2.6.3,3.12-.61s-.23-1.45-.94-1.73c-.3-.12-.8-.18-.88-.54-.3-1.28,1.07-1.32,1.93-1.46s1.78-.38,2.37.34c.27.32.13.7.43,1,.55.59,2,.26,2.56-.08a2.72,2.72,0,0,0,.88-2.26,1.84,1.84,0,0,0-.28-1.08c-.59-.84-2.31-1.21-3.17-1.7a33.61,33.61,0,0,1-3.58-2.43,31.48,31.48,0,0,0-4.31-2.61c-1.28-.66-2.87-1.77-4.37-1.5a1.25,1.25,0,0,0-1,1.08,7.06,7.06,0,0,0-.28,1.29,5.63,5.63,0,0,0,.41,1.51,1.68,1.68,0,0,1-.15,1.78,1.75,1.75,0,0,1-2.05.07c-.66-.5-.93-1.29-1.65-1.67a3.52,3.52,0,0,0-2.31-.43,7.84,7.84,0,0,1-2.69,0,2.36,2.36,0,0,1-1.61-2,2,2,0,0,1,.68-1.74,6.47,6.47,0,0,1,2.52-.34l.44,0h.14a5.12,5.12,0,0,0,.55-.08l0,0c.12.22.79-.74.81-.85.12-.48-.24-1-.07-1.49a1.49,1.49,0,0,1,.93-.65,3.56,3.56,0,0,1,1.49,0c.4,0,.84,0,1.23.13.92.19.95.9,1.52,1.45.82.77,1.31.43,2.38.58s4.17,2.12,5.2.58c1.14-1.71-1.94-3-2.89-3.28a8.85,8.85,0,0,1-4-2.75,3.54,3.54,0,0,1-.85-2.16c0-.65,0-1.65.61-2.06A1,1,0,0,1,478,44a1.53,1.53,0,0,1,.88.11,2.67,2.67,0,0,1,.85,1c.41.8.27,1.57.85,2.37a15.28,15.28,0,0,0,2,2.07,19.48,19.48,0,0,0,6.18,4.09,29.89,29.89,0,0,1,3.77,1.5,8.89,8.89,0,0,1,2.76,2.9c2.52,3.23,9.94,2.18,8.2-2.92A17.16,17.16,0,0,0,496.28,46c-1.63-1-3.1-2.37-4.75-3.29a21.2,21.2,0,0,0-6.84-1.87,69.07,69.07,0,0,0-8.12-.78c-2-.08-4.12-.41-5.78.94-.89.7-3.5,3.16-3.55,4.18s1.24,1.5,1.45,2.4a1,1,0,0,1-.19,1c-.33.32-.79.42-.86.93a1.93,1.93,0,0,0,.28,1.13c.14.29.44.85.19,1.18-.68.85-1.6-.69-1.66-1.27-.09-.95.22-1.77-.75-2.37-.65-.4-2.43-.58-2.7.37-.13.45.38.89.33,1.42-.13,1.06-.84.79-1.65.93-1.42.24-1.72,1.3-3.24.6-.15-.76.29-2-.45-2.5s-1.92-.11-2.59-.37a7,7,0,0,0-4.92-.36,38.79,38.79,0,0,0-5.58,2.57c-2.34,1.15-6-.33-7.89,1.37l0,.33a3.32,3.32,0,0,0-3.32,1.68,13.58,13.58,0,0,0-1.67,3.2,11.93,11.93,0,0,0-1.24,2.66,8.77,8.77,0,0,0,.06,2.23c.06.38,3.45-.65,3.88-.6,1.57.21,2.79,1.72,4.05,2.53,1.07.68,2.38,1.38,2.57,2.68a42.69,42.69,0,0,1,0,4.93c.09,3.17,3.39,5.59,5.35,7.78.87,1,.94,2.2,1.8,3.12.48.51,1.92,3.09,3,2.13.85-.76-1.36-3.08-1.18-4.14.09-.65,1.57.65,1.66.74a8.85,8.85,0,0,1,1.26,2.67c.7,1.9,1.31,2.74,2.91,3.49-.09.91.85,1.52,1.68,2a29.69,29.69,0,0,0,2.89,1c.92.41,1.93.41,2.79.82,1.27.61.41,1.22,1.13,2.13s2.32.39,3.39.56c2.31.36,1.92,2.55,3.36,3.87.78.74,2.12.66,3.11.77a2.09,2.09,0,0,1,1.2.33c.77.67-.13,1.61-.43,2.27a12,12,0,0,0-.85,2.81c-.49,2.68-.39,5.68,1.57,7.76,2.14,2.26,4.75,3.29,5.57,6.53.69,2.7.05,5.35-.45,8-.31,1.6-2.51,4.39-.32,5.57,1.9,1,5.14-1.8,6.38-2.88,2.94-2.55,6.82-4.11,8.76-7.69.91-1.7,1.72-3.49,3.33-4.66a27.89,27.89,0,0,1,2.71-1.55c1.92-1.08,3.06-3.4,3.92-5.31,1-2.33.08-3.64-1.76-5Zm-34.48-41a4.2,4.2,0,0,1,1.44,0,5.61,5.61,0,0,1,2.11,1.38,14.53,14.53,0,0,1,1.28,1.19c.27.27.53.51.47,1a.61.61,0,0,1-.61.61c-.64.07-.93-.35-1.5-.44-1.35-.23-1.92,2-3.27,1.43-.34-.16-.24-.45-.24-.81a1.78,1.78,0,0,1,.1-.77,2.15,2.15,0,0,1,.6-.78c.16-.14.43-.25.55-.43.3-.47-.12-1-.55-1.14-.26-.11-.65-.12-.82-.35-.31-.45,0-.68.44-.8Z" transform="translate(-36.22 -16.51)"/><path id="path1204" class="cls-5" d="M523.83,89.15c0-2.18.09-5.18-1.74-6.76s-3.78-.58-5.18.82c-2.71,2.72-3.81,7.85-1.55,11.16a5.67,5.67,0,0,0,3.28,2.56c1.37.32,4,.48,4.63-.9a6,6,0,0,0,.24-2.6c0-1.48.33-2.81.32-4.28Z" transform="translate(-36.22 -16.51)"/><path id="path1206" class="cls-5" d="M481.45,86.38c-.67-.34-.93-.91-1.38-1.36a2,2,0,0,0-.86-.53,7.84,7.84,0,0,0-2.37-.08c-1.09.07-3.87.25-4,1.78-.18,1.94,2.51,1.72,3.84,1.7a10.33,10.33,0,0,1,2.72-.12c1.34.33,1,1.51,2.08,2a10.07,10.07,0,0,0,1.88.41c1.34.11,4.54-.65,3.69-2.55-.77-1.74-4.22-.55-5.59-1.22Z" transform="translate(-36.22 -16.51)"/></g></g></g></g><g id="Text"><text class="cls-6" transform="translate(0 127.51)">QuickOpen</text><path class="cls-7" d="M152.92,167.69c.51.19.83-.08.71-.62l-14.57-62.62a.55.55,0,0,0-1-.32L92.75,143.54a.56.56,0,0,0,.18,1Z" transform="translate(-36.22 -16.51)"/><path class="cls-8" d="M152.92,167.69c.51.19.83-.08.71-.62l-14.57-62.62a.55.55,0,0,0-1-.32L92.75,143.54a.56.56,0,0,0,.18,1Z" transform="translate(-36.22 -16.51)"/></g></svg>